<svg width="547" height="547" viewBox="0 0 547 547" fill="none" xmlns="http://www.w3.org/2000/svg">
<path d="M547 273.5C547 424.55 424.55 547 273.5 547C122.45 547 0 424.55 0 273.5C0 122.45 122.45 0 273.5 0C424.55 0 547 122.45 547 273.5Z" fill="white"/>
<path d="M240.099 115.763C241.171 114.759 242.876 114.9 243.769 116.066C244.554 117.09 244.424 118.544 243.471 119.414L198.797 160.124C197.874 160.965 196.424 160.809 195.701 159.792C195.099 158.943 195.216 157.781 195.975 157.069L240.099 115.763Z" fill="black"/>
<path d="M317.684 118.985C316.679 117.909 314.992 117.851 313.916 118.855C312.855 119.846 312.781 121.504 313.751 122.584L356.255 169.955C357.467 171.306 359.544 171.422 360.899 170.215C362.281 168.985 362.379 166.858 361.116 165.505L317.684 118.985Z" fill="black"/>
<path d="M244.552 115.729C243.397 114.52 241.484 114.463 240.259 115.602C239.015 116.759 238.953 118.709 240.121 119.943L275.025 156.807C276.346 158.202 278.595 158.108 279.795 156.608C280.786 155.37 280.708 153.591 279.613 152.445L244.552 115.729Z" fill="black"/>
<path d="M313.821 118.864C314.959 117.884 316.694 118.095 317.563 119.321C318.306 120.368 318.153 121.805 317.206 122.672L279.751 157.014C278.285 158.358 275.975 158.126 274.805 156.517C273.785 155.115 274.011 153.165 275.324 152.033L313.821 118.864Z" fill="black"/>
<path d="M217.107 177.646C243.088 177.646 262.607 200.645 262.607 227.146C262.607 240.384 257.704 254.581 249.471 265.436C241.24 276.289 229.906 283.536 217.107 283.536C204.321 283.536 193.216 276.302 185.209 265.461C177.197 254.615 172.5 240.412 172.5 227.146C172.5 200.58 191.185 177.646 217.107 177.646Z" fill="#BAF8FF" stroke="black" stroke-width="5"/>
<path d="M329.107 178.536C355.088 178.536 374.607 201.535 374.607 228.036C374.607 241.275 369.704 255.471 361.471 266.326C353.24 277.179 341.906 284.426 329.107 284.426C316.321 284.426 305.216 277.192 297.209 266.352C289.197 255.505 284.5 241.302 284.5 228.036C284.5 201.47 303.185 178.536 329.107 178.536Z" fill="#BAF8FF" stroke="black" stroke-width="5"/>
<path d="M236.5 213.036C236.5 219.111 233.075 226.536 227 226.536C220.925 226.536 217 219.111 217 213.036C217 206.961 220.925 201.036 227 201.036C233.075 201.036 236.5 206.961 236.5 213.036Z" fill="black"/>
<path d="M348.5 213.926C348.5 220.001 345.075 227.426 339 227.426C332.925 227.426 329 220.001 329 213.926C329 207.851 332.925 201.926 339 201.926C345.075 201.926 348.5 207.851 348.5 213.926Z" fill="black"/>
<path d="M194 324.036C203.5 359.536 232.75 335.036 232.75 335.036C232.75 335.036 255.769 346.036 271.5 346.036C287.231 346.036 310.25 335.036 310.25 335.036C310.25 335.036 340.5 359.536 349 324.036" stroke="black" stroke-width="5" stroke-linecap="round"/>
<path d="M292.331 297.536C291.11 306.571 283.369 313.536 274 313.536H270C260.631 313.536 252.89 306.571 251.669 297.536H292.331Z" stroke="black" stroke-width="5"/>
<path d="M212.76 380.46C218.563 380.46 223.149 381.271 226.52 382.892C229.933 384.471 232.515 386.241 234.264 388.204C235.672 389.825 236.824 391.703 237.72 393.836C238.616 395.927 239.064 398.444 239.064 401.388C239.064 403.564 238.573 405.847 237.592 408.236C236.611 410.583 235.331 412.481 233.752 413.932C232.088 415.511 230.509 416.791 229.016 417.772C227.565 418.753 225.581 419.564 223.064 420.204C220.589 420.801 217.432 421.1 213.592 421.1C210.691 421.1 208.067 420.78 205.72 420.14C203.373 419.457 202.2 418.327 202.2 416.748C202.2 416.108 202.477 415.617 203.032 415.276C203.629 414.892 204.269 414.7 204.952 414.7C205.336 414.7 205.592 414.721 205.72 414.764C206.019 411.948 206.168 408.961 206.168 405.804C206.168 402.263 206.083 399.34 205.912 397.036C205.741 394.689 205.507 392.364 205.208 390.06C205.165 389.761 205.059 388.929 204.888 387.564C204.76 386.199 204.696 384.812 204.696 383.404C204.696 382.508 205.144 381.761 206.04 381.164C206.936 380.524 207.853 380.204 208.792 380.204C209.347 380.204 210.093 380.247 211.032 380.332C211.8 380.417 212.376 380.46 212.76 380.46ZM211.928 415.084C212.952 415.255 214.296 415.34 215.96 415.34C218.776 415.34 221.443 414.764 223.96 413.612C226.477 412.417 228.504 410.775 230.04 408.684C231.576 406.551 232.344 404.097 232.344 401.324C232.344 398.423 231.832 395.948 230.808 393.9C229.784 391.852 228.205 390.167 226.072 388.844C224.493 387.863 222.552 387.159 220.248 386.732C217.944 386.263 215.171 386.028 211.928 386.028C211.928 387.052 211.992 388.332 212.12 389.868C212.12 390.38 212.163 391.276 212.248 392.556C212.504 397.505 212.632 401.495 212.632 404.524C212.632 408.919 212.397 412.439 211.928 415.084ZM248.031 379.948C249.524 380.076 250.826 380.481 251.935 381.164C253.044 381.804 253.599 382.785 253.599 384.108C253.599 385.089 253.13 385.879 252.191 386.476C251.295 387.031 250.207 387.308 248.927 387.308C247.69 387.308 246.836 386.988 246.367 386.348C245.898 385.708 245.663 385.047 245.663 384.364C245.663 383.084 245.791 382.017 246.047 381.164C246.346 380.311 247.007 379.905 248.031 379.948ZM253.151 408.3V410.156C253.151 411.82 253.194 413.399 253.279 414.892C253.407 416.343 253.556 417.815 253.727 419.308C253.684 419.735 253.364 420.183 252.767 420.652C252.17 421.079 251.636 421.292 251.167 421.292C250.356 421.292 249.524 421.143 248.671 420.844C247.86 420.503 247.37 420.097 247.199 419.628C246.943 418.263 246.815 417.047 246.815 415.98C246.815 412.481 246.708 408.556 246.495 404.204C246.324 400.364 246.239 397.676 246.239 396.14C246.239 395.372 246.623 394.711 247.391 394.156C248.159 393.601 248.97 393.324 249.823 393.324C251.06 393.324 251.914 393.601 252.383 394.156C252.895 394.711 253.151 395.585 253.151 396.78V408.3ZM285.462 421.292C284.011 421.292 282.902 421.079 282.134 420.652C281.366 420.183 280.534 419.329 279.638 418.092C278.529 419.073 276.865 419.863 274.646 420.46C272.47 421.057 270.593 421.356 269.014 421.356C266.411 421.356 264.299 420.652 262.678 419.244C261.099 417.793 260.31 415.681 260.31 412.908C260.31 411.713 260.63 410.625 261.27 409.644C261.953 408.62 262.827 407.724 263.894 406.956C265.089 406.145 266.497 405.505 268.118 405.036C269.782 404.567 271.297 404.332 272.662 404.332C274.966 404.332 277.014 404.545 278.806 404.972V404.908C278.806 402.604 278.23 401.025 277.078 400.172C275.969 399.276 274.177 398.828 271.702 398.828C270.123 398.828 268.758 399.532 267.606 400.94C267.179 401.495 266.283 401.772 264.918 401.772C264.235 401.772 263.723 401.495 263.382 400.94C263.083 400.343 262.934 399.745 262.934 399.148C262.934 397.911 263.446 396.844 264.47 395.948C265.537 395.052 266.817 394.391 268.31 393.964C269.803 393.495 271.19 393.26 272.47 393.26C273.707 393.26 275.179 393.516 276.886 394.028C278.593 394.54 279.979 395.223 281.046 396.076C282.326 397.185 283.307 398.487 283.99 399.98C284.715 401.431 285.078 403.031 285.078 404.78C285.078 405.335 285.035 406.167 284.95 407.276C284.865 408.556 284.822 409.601 284.822 410.412C284.822 410.796 284.779 411.287 284.694 411.884C284.609 412.652 284.566 413.292 284.566 413.804C284.566 414.359 284.737 414.892 285.078 415.404C285.419 415.916 285.889 416.343 286.486 416.684C287.041 416.983 287.403 417.303 287.574 417.644C287.745 417.985 287.83 418.369 287.83 418.796C287.83 419.223 287.553 419.756 286.998 420.396C286.486 420.993 285.974 421.292 285.462 421.292ZM272.662 409.068C270.998 409.068 269.526 409.388 268.246 410.028C266.966 410.668 266.326 411.799 266.326 413.42C266.326 414.231 266.603 414.913 267.158 415.468C267.755 416.023 268.395 416.3 269.078 416.3C270.913 416.3 272.449 416.108 273.686 415.724C274.923 415.34 276.417 414.636 278.166 413.612C278.379 412.929 278.507 411.969 278.55 410.732C278.55 410.263 278.571 409.9 278.614 409.644C276.31 409.26 274.326 409.068 272.662 409.068ZM302.114 418.476C302.114 419.201 301.837 419.841 301.282 420.396C300.727 420.951 300.045 421.228 299.234 421.228C297.954 421.228 297.015 420.993 296.418 420.524C295.821 420.012 295.522 419.095 295.522 417.772C295.522 416.193 295.479 414.124 295.394 411.564C295.309 409.431 295.266 407.639 295.266 406.188C295.266 405.505 295.309 404.609 295.394 403.5C295.479 402.476 295.522 401.708 295.522 401.196C295.394 400.385 295.074 399.724 294.562 399.212C294.05 398.657 293.389 398.38 292.578 398.38C292.194 398.38 291.874 398.209 291.618 397.868C291.362 397.484 291.234 397.1 291.234 396.716C291.234 395.735 291.618 394.988 292.386 394.476C293.197 393.964 294.157 393.708 295.266 393.708C297.57 393.708 299.17 395.073 300.066 397.804C301.175 396.524 302.434 395.5 303.842 394.732C305.293 393.921 306.679 393.516 308.002 393.516C309.581 393.516 311.01 393.943 312.29 394.796C313.613 395.649 314.274 396.801 314.274 398.252C314.274 399.063 313.911 399.895 313.186 400.748C312.503 401.601 311.799 402.028 311.074 402.028C310.69 402.028 310.349 401.943 310.05 401.772C309.794 401.559 309.474 401.26 309.09 400.876C308.663 400.449 308.301 400.151 308.002 399.98C307.703 399.767 307.362 399.66 306.978 399.66C306.295 399.66 305.655 399.767 305.058 399.98C304.461 400.193 304.055 400.449 303.842 400.748C303.159 401.815 302.647 402.775 302.306 403.628C302.007 404.481 301.858 405.399 301.858 406.38C301.858 407.105 301.837 407.681 301.794 408.108L301.73 411.756C301.73 412.311 301.751 412.929 301.794 413.612C301.837 414.295 301.879 414.807 301.922 415.148C302.05 416.3 302.114 417.409 302.114 418.476ZM325.056 434.092C322.709 434.092 321.002 433.665 319.936 432.812C318.912 432.001 318.4 431.105 318.4 430.124C318.4 428.631 319.104 427.884 320.512 427.884C320.938 427.884 321.493 428.012 322.176 428.268C322.858 428.567 323.498 428.716 324.095 428.716C325.034 428.716 325.802 428.097 326.4 426.86C326.997 425.623 327.594 423.617 328.192 420.844C326.869 419.308 325.248 416.876 323.328 413.548C321.45 410.22 319.829 406.956 318.464 403.756C317.098 400.513 316.416 398.209 316.416 396.844C316.416 395.777 316.778 394.988 317.504 394.476C318.272 393.964 319.146 393.708 320.128 393.708C320.896 393.708 321.493 393.857 321.92 394.156C322.346 394.412 322.645 394.903 322.816 395.628C323.84 399.255 324.928 402.433 326.08 405.164C327.274 407.895 328.789 410.86 330.624 414.06C331.349 412.396 332.309 409.559 333.503 405.548C334.826 401.068 335.936 397.889 336.832 396.012C337.216 395.244 337.685 394.625 338.24 394.156C338.837 393.687 339.498 393.452 340.224 393.452C340.949 393.452 341.717 393.729 342.528 394.284C343.381 394.796 343.808 395.415 343.808 396.14C343.808 396.567 343.658 397.079 343.36 397.676C341.696 401.516 340.224 405.143 338.944 408.556C337.706 411.927 336.512 415.639 335.36 419.692C334.677 421.953 333.952 424.108 333.184 426.156C332.458 428.204 331.946 429.463 331.648 429.932C330.794 431.127 329.834 432.108 328.768 432.876C327.701 433.687 326.464 434.092 325.056 434.092Z" fill="black"/>
<path d="M148.605 222.205C142.205 224.605 127.938 223.871 121.605 223.205C153.604 231.205 148.605 251.704 139.105 256.204C129.606 260.704 124.105 261.704 124.605 270.204C125.005 277.004 124.439 288.038 124.105 292.704C122.105 307.204 118.605 311.204 118.605 311.204C111.005 305.604 101.939 292.871 98.6052 287.204C80.1052 259.704 67.6051 215.204 86.1047 194.204C96.2219 182.72 114.105 174.205 137.605 175.705C161.105 177.205 165.605 195.205 164.105 203.705C162.605 212.205 156.605 219.205 148.605 222.205Z" fill="#FF9500"/>
<path d="M105.105 162.204C103.605 158.204 102.439 156.038 101.105 154.704C101.105 154.704 106.041 154.095 109.105 154.704C111.773 155.235 115.605 157.204 115.605 157.204C114.605 135.704 163.105 134.204 156.605 137.204C150.105 140.204 146.605 153.704 145.105 156.204C143.605 158.704 141.605 164.704 135.105 169.704C128.605 174.704 121.105 170.704 121.105 170.204C121.105 169.704 122.105 172.204 125.105 160.204C128.105 148.204 146.605 142.704 134.605 147.204C122.605 151.704 117.605 171.704 117.605 167.704C117.605 163.704 105.605 157.204 108.605 159.204C115.105 164.704 117.105 171.204 112.605 169.704C108.105 168.204 106.334 165.482 105.105 162.204Z" fill="#00FF2B"/>
<path d="M400.886 173.905C399.347 173.466 391.102 172.245 390.458 171.556C389.487 170.693 388.576 167.992 396.572 168.258C402.968 168.472 405.889 168.903 406.55 169.091C451.774 178.104 470.929 218.766 467.963 247.683C464.998 276.6 446.791 297.505 428.95 307.415C411.11 317.326 379.128 316.259 395.319 310.796C411.51 305.333 422.038 304.683 434.498 291.091C446.958 277.499 450.739 269.12 454.238 254.229C457.736 239.337 452.473 217.149 442.928 203.323C433.384 189.497 423.573 183.667 416.694 179.936C409.814 176.204 402.868 174.472 400.886 173.905Z" fill="#FFCA20"/>
<path d="M424.603 199.837C428.051 196.473 425.891 193.011 424.38 191.7C417.554 185.779 404.669 180.023 395.921 180.251C391.106 180.377 389.765 185.059 389.696 187.427C389.498 199.611 389.442 224.804 390.811 228.109C392.18 231.415 394.27 230.227 395.143 229.219C403.527 220.827 421.156 203.2 424.603 199.837Z" fill="#FF9500"/>
<path d="M427.129 204.48C430.428 200.97 433.93 203.065 435.268 204.551C441.126 211.054 447.642 226.994 447.247 232.791C446.921 237.597 442.555 239.037 440.189 239.149C428.011 239.575 402.824 240.101 399.493 238.795C396.163 237.488 397.311 235.376 398.302 234.484C406.537 225.945 423.831 207.99 427.129 204.48Z" fill="#FF9500"/>
<path d="M440.888 243.733C445.703 243.595 446.689 247.554 446.58 249.551C446.575 258.976 439.911 273.03 435.019 277.965C431.628 281.386 427.282 279.046 425.533 277.448C416.639 269.119 398.496 251.64 397.072 248.358C395.648 245.076 397.955 244.4 399.287 244.473C411.148 244.284 436.074 243.872 440.888 243.733Z" fill="#FF9500"/>
<path d="M424.322 284.887C427.732 288.289 425.535 291.727 424.01 293.021C417.205 298.139 400.243 304.269 395.428 304.158C390.612 304.047 389.324 299.283 389.281 296.914C389.216 284.73 389.436 259.538 390.841 256.247C392.246 252.957 394.322 254.168 395.185 255.184C403.476 263.668 420.911 281.486 424.322 284.887Z" fill="#FF9500"/>
</svg>
